<svg width="28" height="31" viewBox="0 0 28 31" fill="none" xmlns="http://www.w3.org/2000/svg">
<path d="M27.85 3.16877C27.7444 3.06315 27.6035 2.99273 27.4627 2.99273H22.111V0.528129C22.111 0.24646 21.8645 0 21.5829 0H6.5488C6.26713 0 6.02067 0.24646 6.02067 0.528129V2.99273H0.528129C0.387295 2.99273 0.24646 3.06315 0.140835 3.16877C0.0352088 3.2744 0 3.41523 0 3.55607C0 3.6617 0.105626 5.91505 0.915424 8.52048C2.0421 12.0061 3.94336 14.4707 6.47838 15.5974C7.32339 18.4141 9.25986 20.6322 11.6893 21.5125V21.6181C11.6893 24.5404 9.47112 26.8642 6.61922 26.8642C6.33755 26.8642 6.09109 27.1106 6.09109 27.3923V30.385C6.09109 30.6667 6.33755 30.9132 6.61922 30.9132H21.5829C21.8645 30.9132 22.111 30.6667 22.111 30.385V27.3923C22.111 27.1106 21.8645 26.8642 21.5829 26.8642C18.6958 26.8642 16.3368 24.5052 16.3368 21.6181V21.5477C18.8718 20.6675 20.8435 18.4141 21.6885 15.527C24.1179 14.3651 25.9839 11.9357 27.0754 8.52048C27.9204 5.91505 27.9908 3.62649 27.9908 3.55607C28.026 3.41523 27.9556 3.2744 27.85 3.16877ZM1.09147 4.04899H6.02067V12.4991C6.02067 13.0976 6.05588 13.6609 6.16151 14.2243C2.14772 11.8301 1.26751 5.87984 1.09147 4.04899ZM21.0547 27.8852V29.8217H7.14735V27.8852C10.2457 27.6388 12.6399 25.0685 12.7103 21.7941C13.1328 21.8645 13.5905 21.935 14.0482 21.935C14.4707 21.935 14.8932 21.8998 15.2805 21.8293C15.4214 25.0333 17.9212 27.6388 21.0547 27.8852ZM15.4566 20.7379C14.9989 20.8435 14.5412 20.9139 14.0834 20.9139C13.5553 20.9139 13.0272 20.8435 12.5343 20.7027C12.4286 20.6675 12.2526 20.597 12.1822 20.597C9.25986 19.6112 7.07693 16.372 7.07693 12.5343V1.09147H21.0547V3.20398V3.87295V12.5343C21.0547 16.372 18.8718 19.6112 15.9143 20.597L15.4566 20.7379ZM22.0054 14.1539C22.0758 13.6257 22.1462 13.0624 22.1462 12.4991V4.04899H26.9346C26.7585 5.87984 25.9135 11.654 22.0054 14.1539Z" fill="black"/>
<path d="M19.1532 7.39384L16.2661 6.97133L14.9634 4.33069C14.8225 4.04902 14.5057 3.83777 14.1888 3.83777C13.8719 3.83777 13.555 4.01381 13.4142 4.33069L12.1115 6.97133L9.22436 7.39384C8.90748 7.42905 8.62581 7.67551 8.52019 7.99238C8.41456 8.30926 8.48498 8.66135 8.73144 8.8726L10.844 10.9147L10.351 13.8018C10.2806 14.1187 10.4215 14.4356 10.7031 14.6468C10.844 14.7524 11.02 14.8229 11.2313 14.8229C11.3721 14.8229 11.5129 14.7876 11.6185 14.7172L14.2944 13.3793L16.8294 14.7172C17.1111 14.8581 17.4632 14.8581 17.7448 14.6468C18.0265 14.4356 18.1321 14.1187 18.0969 13.8018L17.604 10.9147L19.7165 8.8726C19.963 8.62614 20.0334 8.30926 19.9278 7.99238C19.7517 7.67551 19.5053 7.42905 19.1532 7.39384ZM16.6182 10.3514C16.4773 10.457 16.4421 10.633 16.4773 10.8091L16.9703 13.5906L14.5409 12.323C14.4 12.2526 14.224 12.2526 14.0479 12.323L11.4425 13.6258L11.9354 10.8091C11.9706 10.633 11.9002 10.457 11.7946 10.3514L9.7877 8.37968L12.5692 7.95717C12.7452 7.92197 12.8861 7.81634 12.9565 7.67551L14.1888 5.14049L15.4211 7.67551C15.4915 7.81634 15.6323 7.95717 15.8084 7.95717L18.5898 8.37968L16.6182 10.3514Z" fill="#FF6B03"/>
</svg>
