<svg width="38" height="24" viewBox="0 0 38 24" fill="none" xmlns="http://www.w3.org/2000/svg">
<path d="M37.416 0H15.1337C14.811 0 14.5497 0.256752 14.5497 0.573961V5.93935H7.85752C7.69749 5.93935 7.54487 6.00363 7.43468 6.11766L0.161192 13.6289C0.0576241 13.7357 0 13.8772 0 14.0246V20.6297C0 20.9469 0.261255 21.2037 0.584028 21.2037H4.6368C4.83537 22.7771 6.20238 24 7.85752 24C9.51382 24 10.8824 22.7775 11.081 21.2037H15.1337H25.7447C25.9429 22.7771 27.3072 24 28.9588 24C30.6155 24 31.9841 22.7775 32.1831 21.2037H37.416C37.7387 21.2037 38 20.9469 38 20.6297V0.573579C38 0.257135 37.7384 0 37.416 0ZM7.85713 22.8521C6.7101 22.8521 5.77721 21.9357 5.77721 20.8095C5.77721 19.6823 6.7101 18.7655 7.85713 18.7655C9.00572 18.7655 9.94016 19.6823 9.94016 20.8095C9.94016 21.936 9.00572 22.8521 7.85713 22.8521ZM7.85713 17.6175C6.33048 17.6175 5.05029 18.6591 4.70415 20.0561H1.16728V14.2541L8.10709 7.08727H14.5489V20.0561H11.0124C10.6667 18.6591 9.38495 17.6175 7.85713 17.6175ZM28.9585 22.8521C27.8149 22.8521 26.8852 21.9357 26.8852 20.8095C26.8852 19.6823 27.8153 18.7655 28.9585 18.7655C30.1074 18.7655 31.0423 19.6823 31.0423 20.8095C31.0423 21.936 30.1074 22.8521 28.9585 22.8521ZM36.8319 20.0561H32.1149C31.7684 18.6591 30.4867 17.6175 28.9585 17.6175C27.4353 17.6175 26.1575 18.6591 25.8121 20.0561H15.7174V1.14792H36.8316L36.8319 20.0561Z" fill="black"/>
<path d="M22.6093 10.5406H25.8909V13.4583C25.8909 13.7577 26.1635 14 26.5002 14C26.8369 14 27.1095 13.7577 27.1095 13.4583V10.5406H30.3907C30.7274 10.5406 31 10.2983 31 9.99892C31 9.69956 30.7274 9.45725 30.3907 9.45725H27.1095V6.54166C27.1095 6.2423 26.8369 6 26.5002 6C26.1635 6 25.8909 6.2423 25.8909 6.54166V9.45725H22.6093C22.2726 9.45725 22 9.69956 22 9.99892C22 10.2983 22.2726 10.5406 22.6093 10.5406Z" fill="#FF6B03"/>
</svg>
