<svg width="19" height="32" viewBox="0 0 19 32" fill="none" xmlns="http://www.w3.org/2000/svg">
<path d="M12.2472 23.0554L17.556 14.519C17.5734 14.4914 17.5879 14.4624 17.5992 14.4323C18.516 12.9373 19 11.2295 19 9.48601C19 4.25543 14.7446 0 9.51399 0C4.2834 0 0.0276185 4.25543 0.0276185 9.48601C0.0276185 11.2299 0.512365 12.9384 1.42981 14.4344C1.44043 14.4606 1.45282 14.4861 1.46769 14.5109L6.58603 23.0766C2.61281 23.6382 0 25.272 0 27.2538C0 29.7094 4.17293 31.6324 9.49982 31.6324C14.8267 31.6324 18.9996 29.709 18.9996 27.2538C19 25.2628 16.2654 23.5925 12.2472 23.0554ZM2.38336 13.956C1.53709 12.6091 1.08988 11.0635 1.08988 9.48601C1.08988 4.84109 4.86871 1.06226 9.51399 1.06226C14.1589 1.06226 17.9377 4.84109 17.9377 9.48601C17.9377 11.0642 17.4905 12.6098 16.6446 13.956C16.6269 13.9843 16.6124 14.0137 16.6007 14.0442L10.9919 23.0617C10.9077 23.191 10.891 23.2204 10.788 23.3896L9.37164 25.6671L2.43081 14.0516C2.41842 14.0187 2.40249 13.9865 2.38336 13.956ZM9.50018 30.5702C4.52772 30.5702 1.06262 28.822 1.06262 27.2538C1.06262 25.8304 3.67224 24.4891 7.18232 24.0737L8.90673 26.9599C9.00198 27.1189 9.17264 27.217 9.35783 27.2184C9.35925 27.2184 9.36102 27.2184 9.36244 27.2184C9.54585 27.2184 9.71652 27.1235 9.81354 26.9677L11.6265 24.0528C15.1925 24.4391 17.9374 25.8144 17.9374 27.2538C17.9377 28.8224 14.4726 30.5702 9.50018 30.5702Z" fill="black"/>
<path d="M12.9491 9.48603C12.9491 7.58423 11.4018 6.03687 9.49995 6.03687C7.59815 6.03687 6.05078 7.58423 6.05078 9.48603C6.05078 11.3878 7.59815 12.9352 9.49995 12.9352C11.4018 12.9352 12.9491 11.3878 12.9491 9.48603ZM7.11304 9.48603C7.11304 8.16989 8.18381 7.09913 9.49995 7.09913C10.8161 7.09913 11.8869 8.16989 11.8869 9.48603C11.8869 10.8022 10.8164 11.8729 9.49995 11.8729C8.18345 11.8729 7.11304 10.8022 7.11304 9.48603Z" fill="#FF6B03"/>
</svg>
