<svg width="65" height="21" viewBox="0 0 65 21" fill="none" xmlns="http://www.w3.org/2000/svg">
<path fill-rule="evenodd" clip-rule="evenodd" d="M57.0979 11.4868H59.1019H59.1037C59.3133 11.4908 59.4875 11.3226 59.4952 11.1086V5.43618C59.4952 4.72371 59.5326 4.08031 59.8138 3.43691C60.0068 2.94748 60.4616 2.61796 60.9777 2.59359C62.2596 2.59359 62.2473 4.02808 62.2376 5.15502C62.2368 5.25006 62.236 5.34292 62.236 5.43254V11.1559C62.2608 11.3395 62.4106 11.4787 62.592 11.4868H64.6138C64.8055 11.4908 64.9706 11.3494 65 11.1559V4.52379C65 3.50416 65 2.08469 64.475 1.24136C63.9072 0.332605 63.028 0 62.1275 0C60.7393 0 59.9508 0.68702 59.3884 2.12831H59.3493V0.516173C59.3087 0.347641 59.1632 0.227303 58.9933 0.221736H57.1281C56.9311 0.216785 56.7632 0.366915 56.7419 0.567064V11.1086C56.7445 11.3108 56.9002 11.4762 57.0979 11.4868ZM55.2115 5.95779C55.2115 2.63175 53.5973 0.0145292 50.6126 0.0145292C47.7045 0.0145292 46.0903 2.58813 46.0903 5.84692C46.0903 9.10572 47.685 11.7229 50.6126 11.7229C53.4318 11.7229 55.2115 9.17297 55.2115 5.95779ZM49.0555 5.5143C49.0555 4.2275 49.1498 2.16644 50.6324 2.16644C51.2695 2.16644 51.7198 2.45906 51.9458 3.18606C52.2092 4.02757 52.2466 5.09263 52.2466 5.97958C52.2466 7.33181 52.1879 9.54917 50.6128 9.54917C49.0549 9.54917 49.0553 6.86075 49.0555 5.55694L49.0555 5.5143ZM11.4489 11.5086H13.4583H13.46C13.5609 11.5109 13.6585 11.4722 13.7313 11.4009C13.8042 11.3296 13.8462 11.2316 13.848 11.1286V5.54338L13.848 5.45595C13.8472 4.24153 13.8461 2.63536 15.2362 2.63536C16.5214 2.63536 16.5015 4.04659 16.4855 5.1862V5.18635V5.18651V5.18666V5.1868C16.4838 5.30952 16.4821 5.42907 16.4821 5.54338V11.1304C16.4855 11.3322 16.6407 11.4971 16.838 11.5086H18.8527C18.9532 11.5104 19.0504 11.4715 19.1229 11.4002C19.1953 11.329 19.237 11.2313 19.2389 11.1286V5.54338L19.2387 5.41059C19.2375 4.81882 19.2359 4.02027 19.4276 3.52412C19.623 3.01697 20.0955 2.67745 20.6289 2.6608C21.2109 2.6608 21.6611 2.86073 21.8106 3.56956C21.887 3.9107 21.8771 4.70153 21.8705 5.22596V5.226L21.8705 5.22623L21.8705 5.22821C21.8689 5.35107 21.8676 5.4592 21.8676 5.54338V11.1304C21.8701 11.3325 22.0259 11.4979 22.2236 11.5086H24.2329C24.3337 11.5109 24.4314 11.4722 24.5042 11.4009C24.577 11.3296 24.619 11.2316 24.6209 11.1286V4.47831C24.6209 4.31617 24.6236 4.15047 24.6264 3.98295C24.6428 2.98997 24.6604 1.93299 24.1137 1.17408C23.4509 0.31323 22.3851 -0.115747 21.3255 0.0518637C20.2658 0.219474 19.3771 0.95762 19.0004 1.98287C18.4362 0.650636 17.63 0.0308651 16.3913 0.0308651C15.1526 0.0308651 14.2325 0.650636 13.7448 1.98287H13.7074V0.607016C13.6968 0.410915 13.5435 0.254333 13.3515 0.243514H11.4774C11.2704 0.241426 11.0997 0.408495 11.093 0.619739V11.1613C11.1112 11.351 11.2625 11.4986 11.4489 11.5086ZM7.95195 11.5885C7.8196 11.7057 7.6294 11.7253 7.47675 11.6375C6.9073 11.1537 6.73562 10.8922 6.47197 10.4905C6.42661 10.4214 6.37854 10.3482 6.32525 10.2689C5.22002 11.4176 4.43871 11.7611 3.00957 11.7611C1.31702 11.7611 0 10.6942 0 8.56048C0 6.89383 0.889878 5.76152 2.13571 5.20536C3.05564 4.7931 4.28308 4.66514 5.34426 4.55452L5.3443 4.55452L5.34437 4.55451L5.3445 4.5545L5.34469 4.55448L5.34483 4.55446C5.54194 4.53391 5.73331 4.51396 5.91591 4.49289V4.22754C5.91591 4.17688 5.91631 4.12527 5.91671 4.07298C5.92023 3.62052 5.92415 3.11678 5.67208 2.73718C5.42647 2.35914 4.96018 2.20465 4.54372 2.20465C3.77664 2.20465 3.09321 2.60632 2.92592 3.43692C2.90472 3.63068 2.75872 3.78573 2.56997 3.81496L0.637152 3.59868C0.540705 3.58457 0.454136 3.53071 0.397633 3.44965C0.341129 3.3686 0.319632 3.26743 0.338154 3.16975C0.784872 0.75609 2.92058 0.0272676 4.83382 0.0272676C5.81268 0.0272676 7.09055 0.292624 7.8594 1.04871C8.76197 1.91167 8.75639 3.04137 8.75029 4.27595V4.27612V4.27628V4.27645V4.27663V4.2768C8.74978 4.37844 8.74928 4.4808 8.74928 4.58377V7.78077C8.74928 8.64178 9.0621 9.07008 9.39161 9.52122C9.43075 9.57481 9.47012 9.62871 9.50923 9.68371C9.63738 9.86546 9.66585 10.0926 9.50923 10.229C9.09811 10.5797 8.36841 11.2268 7.96796 11.5921L7.95195 11.5885ZM5.9248 6.583L5.92486 6.68253C5.92557 7.43851 5.92617 8.07957 5.54927 8.76402C5.22892 9.34199 4.72169 9.69822 4.15572 9.69822C3.38509 9.69822 2.93481 9.09844 2.93481 8.20786C2.93481 6.45941 4.47074 6.14135 5.9248 6.14135V6.583ZM35.7426 9.51369C35.7818 9.56735 35.8212 9.62134 35.8604 9.67642C35.9957 9.86544 36.0241 10.0872 35.8515 10.2126C35.4404 10.5634 34.7107 11.2122 34.3102 11.5757C34.1771 11.6913 33.9875 11.7102 33.835 11.623C33.2631 11.1371 33.0937 10.8794 32.8263 10.4725C32.7816 10.4045 32.7342 10.3324 32.6818 10.2544C31.5783 11.4031 30.7917 11.7466 29.3678 11.7466C27.6753 11.7466 26.3583 10.6797 26.3583 8.54774C26.3583 6.87927 27.2428 5.74696 28.5029 5.1908C29.4248 4.77698 30.6591 4.64962 31.7234 4.5398L31.7235 4.53979L31.7236 4.53978L31.7239 4.53976C31.9168 4.51985 32.1042 4.50051 32.2831 4.48015V4.22025C32.2831 4.16984 32.2835 4.11849 32.2839 4.06646C32.2874 3.61383 32.2913 3.1099 32.0375 2.73171C31.799 2.35367 31.3238 2.19736 30.9091 2.19736C30.142 2.19736 29.4622 2.59903 29.2931 3.42963C29.2713 3.62311 29.1256 3.77786 28.9371 3.80768L26.9883 3.59321C26.8912 3.5796 26.8038 3.52566 26.7469 3.44413C26.69 3.36259 26.6685 3.26069 26.6875 3.16246C27.136 0.746987 29.2717 0.0199827 31.185 0.0199827C32.1621 0.0199827 33.4399 0.285339 34.2106 1.04142C35.115 1.89992 35.1086 3.02087 35.1017 4.24914L35.1017 4.25064C35.1011 4.35846 35.1004 4.46711 35.1004 4.57648V7.7753C35.1004 8.63453 35.4132 9.06266 35.7426 9.51369ZM30.5175 9.68732C31.0817 9.68732 31.5907 9.33109 31.9092 8.75494C32.2874 8.06676 32.2871 7.42267 32.2866 6.65724L32.2866 6.57575V6.13227C30.8325 6.13227 29.2966 6.44852 29.2966 8.19878C29.2966 9.08755 29.7468 9.68732 30.5175 9.68732ZM37.5615 0.583394V2.08466C37.5604 2.18764 37.6008 2.28656 37.6731 2.35834C37.7454 2.43013 37.8434 2.4685 37.9441 2.46452H41.404L37.4369 8.28055C37.2558 8.59253 37.1703 8.95269 37.1913 9.31472V10.8505C37.1913 11.0723 37.4316 11.3249 37.6611 11.1995C39.8492 10.0409 42.4511 10.0362 44.6431 11.1868C44.8941 11.3194 45.1308 11.0632 45.1308 10.8414V9.22748C45.124 8.98069 44.9881 8.75658 44.7748 8.64042C43.6198 7.97703 42.2761 7.78256 41.0053 7.81345L44.4296 2.82257C44.7481 2.37546 44.9261 2.09193 44.9261 1.87564V0.583394C44.9271 0.480739 44.887 0.382114 44.8151 0.310386C44.7432 0.238657 44.6457 0.200057 44.5452 0.203534H37.937C37.8364 0.197763 37.7381 0.235799 37.6666 0.308208C37.595 0.380616 37.5568 0.480613 37.5615 0.583394Z" fill="black"/>
<path fill-rule="evenodd" clip-rule="evenodd" d="M40.8668 18.2114C41.3242 17.05 42.3422 14.4473 41.8581 13.8166H41.8617C41.3797 13.1846 38.6744 13.5163 37.4576 13.6655L37.455 13.6658C37.0848 13.7112 37.0278 13.3823 37.3607 13.1442C39.5213 11.5938 43.0612 12.0373 43.4723 12.5607C43.8835 13.0842 43.3602 16.7083 41.3366 18.4386C41.0252 18.7039 40.728 18.5622 40.8668 18.2114ZM26.328 20.0035C31.0337 20.0035 36.5136 18.4859 40.2884 15.6415V15.6469C40.9131 15.1671 40.3774 14.4619 39.7403 14.7382C35.6199 16.513 31.1968 17.4395 26.7249 17.4644C20.5207 17.4644 14.5194 15.7269 9.66419 12.8425C9.23883 12.5899 8.92203 13.0352 9.27798 13.3605C13.9522 17.6672 20.0326 20.0363 26.328 20.0035Z" fill="#FF9900"/>
</svg>
