<svg width="36" height="29" viewBox="0 0 36 29" fill="none" xmlns="http://www.w3.org/2000/svg">
<path d="M21.09 28.7809C28.8851 28.8186 36 22.3653 36 14.515C36 5.93098 28.8851 -0.0032029 21.09 1.29696e-06H14.3813C6.49331 -0.0032029 0 5.93258 0 14.515C0 22.3669 6.49331 28.8186 14.3813 28.7809H21.09Z" fill="#0079BE"/>
<path d="M14.4128 1.18955C7.20419 1.19196 1.36373 7.08768 1.36133 14.3644C1.36373 21.6404 7.20419 27.5361 14.4128 27.5385C21.6223 27.5361 27.4652 21.6404 27.466 14.3644C27.4652 7.08768 21.6231 1.19196 14.4128 1.18955ZM6.14039 14.3644C6.13888 12.682 6.64495 11.0382 7.59247 9.64795C8.53998 8.25768 9.88487 7.1856 11.4514 6.57181V22.1562C9.88474 21.5429 8.5397 20.471 7.59213 19.0808C6.64457 17.6906 6.1386 16.0468 6.14039 14.3644ZM17.3735 22.1594V6.57101C18.9412 7.18392 20.2872 8.25592 21.2354 9.64665C22.1837 11.0374 22.6898 12.682 22.6877 14.3652C22.6895 16.0484 22.1832 17.6929 21.235 19.0835C20.2869 20.4742 18.941 21.5462 17.3735 22.1594Z" fill="white"/>
<path d="M21.09 28.7809C28.8851 28.8186 36 22.3653 36 14.515C36 5.93098 28.8851 -0.0032029 21.09 1.29696e-06H14.3813C6.49331 -0.0032029 0 5.93258 0 14.515C0 22.3669 6.49331 28.8186 14.3813 28.7809H21.09Z" fill="#0079BE"/>
<path d="M14.4128 1.18955C7.20419 1.19196 1.36373 7.08768 1.36133 14.3644C1.36373 21.6404 7.20419 27.5361 14.4128 27.5385C21.6223 27.5361 27.4652 21.6404 27.466 14.3644C27.4652 7.08768 21.6231 1.19196 14.4128 1.18955ZM6.14039 14.3644C6.13888 12.682 6.64495 11.0382 7.59247 9.64795C8.53998 8.25768 9.88487 7.1856 11.4514 6.57181V22.1562C9.88474 21.5429 8.5397 20.471 7.59213 19.0808C6.64457 17.6906 6.1386 16.0468 6.14039 14.3644ZM17.3735 22.1594V6.57101C18.9412 7.18392 20.2872 8.25592 21.2354 9.64665C22.1837 11.0374 22.6898 12.682 22.6877 14.3652C22.6895 16.0484 22.1832 17.6929 21.235 19.0835C20.2869 20.4742 18.941 21.5462 17.3735 22.1594Z" fill="white"/>
</svg>
