<svg width="47" height="36" viewBox="0 0 47 36" fill="none" xmlns="http://www.w3.org/2000/svg">
<path d="M35.3952 18.3122C36.6686 18.3398 37.9492 18.2559 39.2174 18.3558C40.5018 18.5954 40.8113 20.5397 39.6703 21.1765C38.8917 21.5961 37.9668 21.3328 37.1228 21.4068H35.3952V18.3122ZM39.9537 14.8095C40.2366 15.808 39.274 16.7046 38.3122 16.5671H35.3952C35.4157 15.6254 35.3553 14.6033 35.4249 13.7112C36.5934 13.7441 37.7728 13.6441 38.9345 13.7635C39.4337 13.8889 39.8515 14.2993 39.9537 14.8095ZM46.9737 0.00109377C47.028 1.9081 46.9816 3.91589 46.9972 5.86157C46.9936 13.772 47.0048 21.6822 46.991 29.5931C46.9397 32.5577 44.3124 35.1338 41.3683 35.193C38.4213 35.205 35.4739 35.1948 32.5265 35.1981V23.2391C35.7378 23.2226 38.9508 23.2728 42.1608 23.2141C43.6499 23.1206 45.281 22.138 45.3503 20.4993C45.5256 18.8535 43.9739 17.7151 42.5007 17.5354C41.9344 17.5206 41.951 17.3703 42.5007 17.3047C43.9058 17.001 45.0092 15.5467 44.5958 14.0903C44.2435 12.5585 42.5504 11.9656 41.1422 11.9685C38.2707 11.949 35.3987 11.9658 32.5272 11.9601C32.5457 9.72756 32.4885 7.49257 32.558 5.26161C32.7855 2.35049 35.479 -0.0502293 38.3818 0.00185611C41.2461 0.00142025 44.11 0.00142055 46.9737 0.00131158V0.00109377Z" fill="url(#paint0_linear)"/>
<path d="M0.0763784 5.56283C0.149712 2.6029 2.78831 0.0479885 5.72863 0.00472927C8.6647 -0.00431485 11.6012 0.00342218 14.5373 0.000807014C14.5292 9.90412 14.5532 19.8085 14.5252 29.7113C14.4121 32.6353 11.8022 35.1415 8.89396 35.1932C5.95233 35.2039 3.01038 35.1947 0.068642 35.1977V22.8356C2.92604 23.5106 5.92248 23.798 8.83752 23.3502C10.58 23.0699 12.4864 22.2141 13.0764 20.4064C13.5105 18.8601 13.2661 17.2327 13.3307 15.6456V11.9599H8.28593C8.26327 14.3975 8.33235 16.8394 8.24943 19.2742C8.11344 20.7707 6.6314 21.7215 5.21998 21.6707C3.46956 21.6893 0.000864524 20.4022 0.000864524 20.4022C-0.0078527 15.835 0.0516433 10.1153 0.0763784 5.56327V5.56283Z" fill="url(#paint1_linear)"/>
<path d="M16.4182 13.4469C16.1527 13.5032 16.3648 12.5423 16.2969 12.1779C16.315 9.87324 16.2591 7.56612 16.3278 5.26314C16.5546 2.33971 19.2688 -0.0670061 22.1833 0.00142413H30.7662C30.7582 9.90474 30.782 19.8091 30.7541 29.7119C30.6409 32.6359 28.0309 35.142 25.1225 35.1938C22.1808 35.205 19.2388 35.1956 16.2968 35.1984V21.654C18.306 23.3026 21.0368 23.5592 23.5399 23.5636C25.427 23.563 27.303 23.2721 29.1356 22.8368V20.3555C27.0704 21.3848 24.6426 22.0386 22.3533 21.4472C20.7563 21.0497 19.597 19.5063 19.6229 17.8582C19.4378 16.1443 20.4425 14.3348 22.1268 13.8253C24.2179 13.1706 26.497 13.6713 28.4572 14.5225C28.8771 14.7424 29.3034 15.0151 29.1355 14.3131V12.3628C25.8572 11.5828 22.3683 11.2958 19.0748 12.1443C18.1214 12.4132 17.1926 12.8211 16.4182 13.4471V13.4469Z" fill="url(#paint2_linear)"/>
<defs>
<linearGradient id="paint0_linear" x1="32.4277" y1="16.847" x2="46.9059" y2="16.847" gradientUnits="userSpaceOnUse">
<stop stop-color="#58B03A"/>
<stop offset="1" stop-color="#55B330"/>
</linearGradient>
<linearGradient id="paint1_linear" x1="-0.239197" y1="17.9363" x2="14.3" y2="17.9363" gradientUnits="userSpaceOnUse">
<stop stop-color="#0F6EB6"/>
<stop offset="1" stop-color="#006DBA"/>
</linearGradient>
<linearGradient id="paint2_linear" x1="16.2756" y1="17.1883" x2="30.7635" y2="17.1883" gradientUnits="userSpaceOnUse">
<stop stop-color="#DE0D3D"/>
<stop offset="1" stop-color="#E30138"/>
</linearGradient>
</defs>
</svg>
