<svg width="48" height="30" viewBox="0 0 48 30" fill="none" xmlns="http://www.w3.org/2000/svg">
<path fill-rule="evenodd" clip-rule="evenodd" d="M24.0001 25.9346C21.4581 28.1283 18.1606 29.4526 14.5573 29.4526C6.51754 29.4526 0 22.8594 0 14.7263C0 6.5932 6.51754 0 14.5573 0C18.1606 0 21.4581 1.32432 24.0001 3.51807C26.5421 1.32432 29.8396 0 33.4428 0C41.4826 0 48.0002 6.5932 48.0002 14.7263C48.0002 22.8594 41.4826 29.4526 33.4428 29.4526C29.8396 29.4526 26.5421 28.1283 24.0001 25.9346Z" fill="#ED0006"/>
<path fill-rule="evenodd" clip-rule="evenodd" d="M24 25.9346C27.1299 23.2335 29.1146 19.2144 29.1146 14.7263C29.1146 10.2383 27.1299 6.21914 24 3.51807C26.542 1.32432 29.8395 0 33.4428 0C41.4825 0 48.0001 6.5932 48.0001 14.7263C48.0001 22.8594 41.4825 29.4526 33.4428 29.4526C29.8395 29.4526 26.542 28.1283 24 25.9346Z" fill="#F9A000"/>
<path fill-rule="evenodd" clip-rule="evenodd" d="M23.9993 25.9346C27.1292 23.2335 29.1139 19.2144 29.1139 14.7263C29.1139 10.2383 27.1292 6.21914 23.9993 3.51806C20.8694 6.21914 18.8848 10.2383 18.8848 14.7263C18.8848 19.2144 20.8694 23.2335 23.9993 25.9346Z" fill="#FF5E00"/>
</svg>
