<svg width="70" height="48" viewBox="0 0 70 48" fill="none" xmlns="http://www.w3.org/2000/svg">
<rect width="70" height="48" rx="6" fill="#F884A1"/>
<path fill-rule="evenodd" clip-rule="evenodd" d="M40.7322 18.8712L42.6672 9.23625C42.9 8.15535 42.2597 7.06612 41.1872 6.75017C39.9898 6.45084 38.7842 7.14927 38.4766 8.32995L36.7234 14.3325L35.3413 8.42142C35.2332 7.87265 34.9006 7.38208 34.4267 7.06613C33.9528 6.75017 33.3624 6.64208 32.8053 6.75848C31.7078 6.99129 30.9927 8.27175 31.2671 9.43581L32.0826 16.1315C31.3742 15.4254 30.5469 15.2079 29.5881 15.7633L29.4634 15.8464C28.5897 16.4414 28.4119 17.6573 28.9733 18.7648C28.5086 18.7909 28.0543 18.9847 27.7089 19.3386L27.6257 19.43C26.8192 20.2615 26.9772 21.6667 27.9832 22.6728L28.8006 23.4874C28.8925 27.2527 31.9553 29.8899 35.5666 29.8899C35.6093 29.8899 35.6506 29.884 35.6896 29.8731C40.5812 29.8241 42.7311 26.9107 43.0995 22.4898C43.2159 21.093 42.9581 20.1368 42.4177 19.5631C42.1184 19.2471 41.8024 19.0974 41.5613 19.0642L40.7322 18.8712ZM39.8566 18.6674L41.7858 9.05333C41.9188 8.42142 41.5447 7.79782 40.946 7.61489C40.2476 7.44028 39.5325 7.86433 39.3413 8.57108L37.1047 16.2372C37.0381 16.4783 36.7887 16.6114 36.5476 16.5448C36.3561 16.492 36.2328 16.3239 36.2234 16.1361L34.46 8.60434C34.3934 8.28007 34.2022 7.99737 33.9278 7.81445C33.6534 7.63152 33.3125 7.57332 32.9883 7.63984C32.4062 7.76456 31.9739 8.54614 32.1485 9.24457L32.1568 9.29446L33.1646 17.6025L33.7985 18.5485C34.0753 18.1642 34.4745 17.9248 34.9511 17.817C35.3502 17.7338 35.7576 17.7421 36.1484 17.8087C36.2459 17.8226 36.32 17.8423 36.3611 17.8533C36.3691 17.8554 36.3758 17.8572 36.3812 17.8586L39.8566 18.6674ZM33.4 19.5694L32.4075 18.0882C32.3737 18.0524 32.3458 18.0111 32.3254 17.9657L31.858 17.2682C31.2843 16.4284 30.7272 16.1374 30.062 16.5199L29.9706 16.5864C29.4551 16.944 29.3886 17.7921 29.9207 18.6069L31.883 21.5253C32.2322 22.0408 32.9306 22.1739 33.4461 21.8247L33.5459 21.7665C33.6838 21.6763 33.7979 21.5524 33.8798 21.4097C33.387 20.905 33.265 20.281 33.4 19.5694ZM34.7875 21.0233C34.7362 20.9449 34.6596 20.8823 34.5652 20.8475C34.1903 20.4868 34.1755 20.0365 34.3525 19.4467C34.4855 19.0143 34.7432 18.7898 35.1507 18.6983C35.4167 18.6401 35.7078 18.6484 35.9904 18.6983C36.0222 18.7047 36.0503 18.7098 36.0743 18.7142C36.1132 18.7213 36.1413 18.7265 36.1567 18.7316L41.395 19.9538L41.4948 19.9871C41.5779 20.0204 41.6694 20.0869 41.7608 20.1783C42.11 20.5525 42.3096 21.2593 42.2098 22.4233C41.8689 26.4975 39.9732 29.0251 35.4666 28.9836C35.4414 28.9836 35.4166 28.9856 35.3925 28.9896C32.661 28.9167 30.3506 27.1333 29.8139 24.4973L30.486 25.1672C31.2925 25.9404 32.5646 25.9238 33.3462 25.1256L33.4377 25.0341C34.058 24.3869 34.1643 23.4334 33.7612 22.6792C33.8208 22.6471 33.8794 22.6117 33.9367 22.573L34.0365 22.5065C34.2624 22.3526 34.4523 22.1543 34.5979 21.9259C34.9014 22.0841 35.2664 22.2228 35.6994 22.3402L36.955 22.6312C36.0237 23.155 35.4417 24.1278 35.3752 25.6161C35.3585 25.8656 35.5498 26.0734 35.7992 26.0901C36.0487 26.0984 36.2565 25.9155 36.2731 25.666C36.3397 24.319 36.8635 23.5957 37.7033 23.2797C38.1523 23.1134 38.6428 23.0802 39.0752 23.1217L39.1833 23.1384C39.757 23.2465 39.9399 22.39 39.3662 22.257L35.9156 21.4837C35.4176 21.3477 35.0496 21.1966 34.7875 21.0233ZM28.3574 19.9705C28.7025 19.6093 29.2645 19.5658 29.6696 19.8474L31.1346 22.0325C31.5365 22.6195 32.1873 22.9307 32.8452 22.9191C33.2041 23.3545 33.1849 23.9987 32.7808 24.4105L32.6977 24.502C32.2653 24.9427 31.5586 24.951 31.1179 24.5186L28.6235 22.0492C27.9334 21.359 27.8419 20.5109 28.2743 20.062L28.3574 19.9705ZM25.0315 38.3293C25.0315 39.7178 23.9506 40.6657 22.5371 40.6657C21.5477 40.6657 20.6996 40.2167 20.1758 39.5016L21.1486 38.5288C21.4396 38.903 21.9219 39.3104 22.5538 39.3104C23.1441 39.3104 23.5515 38.9612 23.5515 38.3958C23.5515 37.7971 23.0693 37.6475 22.3127 37.4313C20.9241 37.0239 20.3587 36.3005 20.3587 35.3609C20.3587 34.1802 21.2567 33.1658 22.6702 33.1658C23.5598 33.1658 24.383 33.5816 24.7488 34.3881L23.5765 35.1281C23.352 34.7623 23.0443 34.5211 22.6286 34.5211C22.138 34.5211 21.8304 34.8537 21.8304 35.2778C21.8304 35.785 22.2794 35.9429 22.9945 36.1508C24.1169 36.4834 25.0315 37.0405 25.0315 38.3293ZM25.5385 38.0133C25.5385 39.4684 26.7524 40.6657 28.2491 40.6657C29.7457 40.6657 30.9596 39.4684 30.9596 38.0133C30.9596 36.5583 29.7457 35.3609 28.2491 35.3609C26.7524 35.3609 25.5385 36.5583 25.5385 38.0133ZM28.2487 39.3353C28.9721 39.3353 29.5458 38.7616 29.5458 38.0133C29.5458 37.265 28.9721 36.6913 28.2487 36.6913C27.517 36.6913 26.9516 37.265 26.9516 38.0133C26.9516 38.7699 27.5253 39.3353 28.2487 39.3353ZM34.4601 33.2573V34.5877C33.6702 34.5544 33.0965 34.9535 33.0965 35.8349V36.3753C33.4124 36.0428 33.8614 35.8765 34.4185 35.8765V37.2234C33.6369 37.2401 33.0965 37.739 33.0965 38.4374V40.5327H31.683V35.7517C31.683 34.4048 32.5311 33.2573 34.2522 33.2573H34.4601ZM37.5448 40.6657C36.0482 40.6657 34.8343 39.4684 34.8343 38.0133C34.8343 36.5583 36.0482 35.3609 37.5448 35.3609C39.0415 35.3609 40.2554 36.5583 40.2554 38.0133C40.2554 39.4684 39.0415 40.6657 37.5448 40.6657ZM38.8418 38.0133C38.8418 38.7616 38.2764 39.3353 37.5447 39.3353C36.8213 39.3353 36.2476 38.7699 36.2476 38.0133C36.2476 37.265 36.8213 36.6913 37.5447 36.6913C38.2681 36.6913 38.8418 37.265 38.8418 38.0133ZM42.3922 36.076V35.5023H41.0203V40.5326H42.4338V38.2378C42.4338 37.4063 42.9244 36.9407 43.7725 36.9407V35.4274C43.1322 35.4025 42.6749 35.6187 42.3922 36.076ZM46.0009 36.7329V37.9635C46.0009 38.8448 46.5746 39.2356 47.3645 39.2107V40.541H47.1566C45.4272 40.541 44.5874 39.3936 44.5874 38.0466V33.8893H46.0009V34.6792C46.0009 35.361 46.558 35.8765 47.3229 35.8931V37.2318C46.7575 37.2318 46.3169 37.0655 46.0009 36.7329ZM49.0524 40.6158C49.5679 40.6158 50.0003 40.1918 50.0003 39.668C50.0003 39.1525 49.5762 38.7201 49.0524 38.7201C48.5286 38.7201 48.1045 39.1441 48.1045 39.668C48.1045 40.1918 48.5286 40.6158 49.0524 40.6158Z" fill="white"/>
</svg>
