<svg width="54" height="23" viewBox="0 0 54 23" fill="none" xmlns="http://www.w3.org/2000/svg">
<path fill-rule="evenodd" clip-rule="evenodd" d="M29.1407 3.11682L25.3878 3.94593V0.813752L29.1407 0V3.11682ZM36.9453 4.85176C35.48 4.85176 34.5381 5.55804 34.0147 6.04936L33.8204 5.09742H30.531V23L34.2689 22.1862L34.2839 17.8411C34.8221 18.2403 35.6146 18.8084 36.9303 18.8084C39.6067 18.8084 42.0438 16.5974 42.0438 11.7303C42.0289 7.27767 39.5618 4.85176 36.9453 4.85176ZM36.0481 15.4305C35.166 15.4305 34.6427 15.1081 34.2838 14.7089L34.2689 9.01265C34.6576 8.56739 35.1959 8.26032 36.0481 8.26032C37.4087 8.26032 38.3507 9.82641 38.3507 11.8378C38.3507 13.8952 37.4237 15.4305 36.0481 15.4305ZM53.8261 11.8838C53.8261 7.95323 51.9721 4.85176 48.4285 4.85176C44.8701 4.85176 42.717 7.95323 42.717 11.8531C42.717 16.4746 45.2588 18.8084 48.907 18.8084C50.6862 18.8084 52.0319 18.3938 53.0486 17.8104V14.7396C52.0319 15.2616 50.8657 15.5841 49.3855 15.5841C47.9351 15.5841 46.6493 15.062 46.4848 13.2503H53.7962C53.7962 13.1657 53.8016 12.9736 53.8078 12.7522L53.8078 12.7519L53.8078 12.7516V12.7514C53.8162 12.4506 53.8261 12.096 53.8261 11.8838ZM46.4399 10.4252C46.4399 8.69023 47.4715 7.9686 48.4135 7.9686C49.3256 7.9686 50.2974 8.69023 50.2974 10.4252H46.4399ZM25.3878 5.11283H29.1407V18.5474H25.3878V5.11283ZM21.1269 5.11279L21.3661 6.24897C22.2483 4.59076 23.9976 4.92854 24.4761 5.11279V8.64417C24.0126 8.47528 22.5174 8.26032 21.6353 9.44257V18.5474H17.8973V5.11279H21.1269ZM13.8901 1.78101L10.2419 2.5794L10.2269 14.8778C10.2269 17.1502 11.8866 18.8237 14.0994 18.8237C15.3255 18.8237 16.2226 18.5934 16.716 18.3171V15.2002C16.2375 15.3998 13.8751 16.1061 13.8751 13.8337V8.38315H16.716V5.11278H13.8751L13.8901 1.78101ZM5.05368 8.18362C4.26124 8.18362 3.78279 8.41393 3.78279 9.01273C3.78279 9.66652 4.60622 9.95412 5.62777 10.3109C7.29315 10.8926 9.48508 11.6582 9.49434 14.494C9.49434 17.2424 7.35625 18.8238 4.24629 18.8238C2.96044 18.8238 1.55498 18.5628 0.164469 17.9487V14.2944C1.42041 15.0007 3.0053 15.5228 4.24629 15.5228C5.08359 15.5228 5.68166 15.2924 5.68166 14.5862C5.68166 13.862 4.78904 13.531 3.71142 13.1313C2.07026 12.5227 0 11.755 0 9.19697C0 6.47935 2.01848 4.85184 5.05368 4.85184C6.29468 4.85184 7.52072 5.05144 8.76171 5.55812V9.16627C7.62538 8.53676 6.19001 8.18362 5.05368 8.18362Z" fill="#6461FC"/>
</svg>
