<svg width="61" height="20" viewBox="0 0 61 20" fill="none" xmlns="http://www.w3.org/2000/svg">
<path fill-rule="evenodd" clip-rule="evenodd" d="M15.7003 19.1265H10.473L6.55322 4.17224C6.36717 3.48434 5.97213 2.8762 5.39104 2.58958C3.94087 1.86928 2.34288 1.29603 0.599609 1.00692V0.431178H9.0203C10.1825 0.431178 11.0541 1.29603 11.1994 2.30046L13.2332 13.0875L18.4579 0.431178H23.5399L15.7003 19.1265ZM26.4453 19.1265H21.5086L25.5737 0.431178H30.5104L26.4453 19.1265ZM36.8972 5.61034C37.0425 4.60342 37.9141 4.02768 38.931 4.02768C40.529 3.88312 42.2698 4.17224 43.7225 4.89005L44.5941 0.864855C43.1414 0.289116 41.5434 0 40.0932 0C35.3018 0 31.8153 2.58958 31.8153 6.18359C31.8153 8.91773 34.2849 10.3533 36.0281 11.2182C37.9141 12.0806 38.6405 12.6563 38.4952 13.5187C38.4952 14.8122 37.0425 15.3879 35.5923 15.3879C33.8491 15.3879 32.1058 14.9568 30.5103 14.2365L29.6387 18.2641C31.382 18.9819 33.268 19.2711 35.0112 19.2711C40.3838 19.4131 43.7225 16.826 43.7225 12.9429C43.7225 8.05287 36.8972 7.76625 36.8972 5.61034ZM60.9996 19.1265L57.0798 0.431178H52.8695C51.9979 0.431178 51.1262 1.00692 50.8357 1.86928L43.5772 19.1265H48.6591L49.6735 16.3949H55.9177L56.4987 19.1265H60.9996ZM53.5956 5.46576L55.0458 12.5117H50.9807L53.5956 5.46576Z" fill="#172B85"/>
</svg>
