<svg width="21" height="20" viewBox="0 0 21 20" fill="none" xmlns="http://www.w3.org/2000/svg">
<path fill-rule="evenodd" clip-rule="evenodd" d="M5.67245 17.5703C6.09445 17.5703 6.43745 17.9133 6.43745 18.3353C6.43745 18.7573 6.09445 19.0993 5.67245 19.0993C5.25045 19.0993 4.90845 18.7573 4.90845 18.3353C4.90845 17.9133 5.25045 17.5703 5.67245 17.5703Z" stroke="white" stroke-width="1.5" stroke-linecap="round" stroke-linejoin="round"/>
<path fill-rule="evenodd" clip-rule="evenodd" d="M16.9249 17.5703C17.3469 17.5703 17.6899 17.9133 17.6899 18.3353C17.6899 18.7573 17.3469 19.0993 16.9249 19.0993C16.5029 19.0993 16.1599 18.7573 16.1599 18.3353C16.1599 17.9133 16.5029 17.5703 16.9249 17.5703Z" stroke="white" stroke-width="1.5" stroke-linecap="round" stroke-linejoin="round"/>
<path d="M1 1L3.08 1.36L4.043 12.833C4.121 13.768 4.902 14.486 5.84 14.486H16.752C17.648 14.486 18.408 13.828 18.537 12.94L19.486 6.382C19.603 5.573 18.976 4.849 18.159 4.849H3.414" stroke="white" stroke-width="1.5" stroke-linecap="round" stroke-linejoin="round"/>
</svg>
