<svg width="14" height="14" viewBox="0 0 14 14" fill="none" xmlns="http://www.w3.org/2000/svg">
<path d="M12.7749 1.23419C12.6037 1.06254 12.3711 0.966076 12.1287 0.966076C11.8862 0.966076 11.6537 1.06254 11.4824 1.23419L6.99991 5.70752L2.51741 1.22502C2.34615 1.05337 2.11364 0.956909 1.87116 0.956909C1.62869 0.956909 1.39617 1.05337 1.22491 1.22502C0.867412 1.58252 0.867412 2.16002 1.22491 2.51752L5.70741 7.00002L1.22491 11.4825C0.867412 11.84 0.867412 12.4175 1.22491 12.775C1.58241 13.1325 2.15991 13.1325 2.51741 12.775L6.99991 8.29252L11.4824 12.775C11.8399 13.1325 12.4174 13.1325 12.7749 12.775C13.1324 12.4175 13.1324 11.84 12.7749 11.4825L8.29241 7.00002L12.7749 2.51752C13.1232 2.16919 13.1232 1.58252 12.7749 1.23419Z" fill="white"/>
</svg>
