<svg width="48" height="48" viewBox="0 0 48 48" fill="none" xmlns="http://www.w3.org/2000/svg">
<path d="M42.1624 46.7027H5.83804C5.32194 46.7027 4.82698 46.4977 4.46204 46.1327C4.09711 45.7678 3.89209 45.2728 3.89209 44.7567V19.4594C3.89209 19.2874 3.96043 19.1224 4.08207 19.0008C4.20372 18.8791 4.36871 18.8108 4.54074 18.8108C4.71277 18.8108 4.87776 18.8791 4.9994 19.0008C5.12105 19.1224 5.18939 19.2874 5.18939 19.4594V44.7567C5.18939 44.9288 5.25773 45.0938 5.37937 45.2154C5.50102 45.337 5.666 45.4054 5.83804 45.4054H42.1624C42.3344 45.4054 42.4994 45.337 42.621 45.2154C42.7427 45.0938 42.811 44.9288 42.811 44.7567V19.4594C42.811 19.2874 42.8793 19.1224 43.001 19.0008C43.1226 18.8791 43.2876 18.8108 43.4597 18.8108C43.6317 18.8108 43.7967 18.8791 43.9183 19.0008C44.04 19.1224 44.1083 19.2874 44.1083 19.4594V44.7567C44.1083 45.2728 43.9033 45.7678 43.5384 46.1327C43.1734 46.4977 42.6785 46.7027 42.1624 46.7027Z" fill="black"/>
<path d="M45.4055 20.1081H33.9309C33.7588 20.1081 33.5939 20.0397 33.4722 19.9181C33.3506 19.7964 33.2822 19.6314 33.2822 19.4594C33.2822 19.2874 33.3506 19.1224 33.4722 19.0007C33.5939 18.8791 33.7588 18.8108 33.9309 18.8108H45.4055V12.3243H2.59466V18.8108H14.0693C14.2413 18.8108 14.4063 18.8791 14.5279 19.0007C14.6496 19.1224 14.7179 19.2874 14.7179 19.4594C14.7179 19.6314 14.6496 19.7964 14.5279 19.9181C14.4063 20.0397 14.2413 20.1081 14.0693 20.1081H2.59466C2.2506 20.1081 1.92062 19.9714 1.67733 19.7281C1.43404 19.4848 1.29736 19.1548 1.29736 18.8108V12.3243C1.29736 11.9802 1.43404 11.6502 1.67733 11.4069C1.92062 11.1637 2.2506 11.027 2.59466 11.027H45.4055C45.7495 11.027 46.0795 11.1637 46.3228 11.4069C46.5661 11.6502 46.7028 11.9802 46.7028 12.3243V18.8108C46.7028 19.1548 46.5661 19.4848 46.3228 19.7281C46.0795 19.9714 45.7495 20.1081 45.4055 20.1081Z" fill="black"/>
<path d="M24.0002 12.3243C23.8858 12.3242 23.7735 12.2939 23.6746 12.2364C23.5757 12.1789 23.4938 12.0962 23.4371 11.9969C23.3805 11.8975 23.3512 11.7849 23.3521 11.6705C23.353 11.5561 23.3841 11.444 23.4424 11.3455C24.8649 8.93773 28.3838 3.21276 30.3278 2.05297C30.9279 1.67175 31.5984 1.41472 32.2996 1.29707C33.0008 1.17943 33.7185 1.20356 34.4102 1.36804C35.1019 1.53253 35.7536 1.83402 36.3268 2.2547C36.9 2.67539 37.383 3.20672 37.7473 3.81729C38.1116 4.42785 38.3498 5.10527 38.4478 5.80948C38.5459 6.51369 38.5017 7.2304 38.3179 7.91724C38.1342 8.60409 37.8146 9.24712 37.3781 9.80833C36.9415 10.3695 36.3969 10.8375 35.7764 11.1847C34.9838 11.6582 33.3764 12.0402 30.9965 12.3198C30.9111 12.3315 30.8242 12.3261 30.7408 12.3038C30.6575 12.2815 30.5795 12.2428 30.5113 12.19C30.4431 12.1372 30.3861 12.0714 30.3437 11.9963C30.3013 11.9212 30.2742 11.8384 30.2642 11.7527C30.2541 11.6671 30.2613 11.5803 30.2852 11.4974C30.3091 11.4145 30.3493 11.3373 30.4034 11.2701C30.4575 11.203 30.5245 11.1473 30.6004 11.1063C30.6763 11.0654 30.7596 11.04 30.8454 11.0316C33.7247 10.693 34.7535 10.285 35.1109 10.0716C35.5673 9.80048 35.9652 9.44144 36.2817 9.01531C36.5981 8.58917 36.8268 8.10442 36.9544 7.58919C37.1473 6.81852 37.1074 6.00795 36.8397 5.25995C36.5721 4.51195 36.0886 3.86009 35.4506 3.38677C34.8125 2.91345 34.0485 2.63992 33.255 2.60075C32.4615 2.56158 31.6742 2.75853 30.9926 3.1667C29.6136 3.98984 26.7654 8.27222 24.5593 12.0052C24.502 12.1025 24.4202 12.1831 24.3222 12.239C24.2241 12.295 24.1131 12.3244 24.0002 12.3243Z" fill="black"/>
<path d="M23.9999 12.3243C23.887 12.3245 23.7761 12.2952 23.6781 12.2393C23.58 12.1834 23.4982 12.103 23.4408 12.0058C21.2354 8.27222 18.3865 3.98984 17.0081 3.16735C16.5543 2.87519 16.0463 2.67736 15.5144 2.58566C14.9825 2.49397 14.4376 2.51027 13.9122 2.63361C13.3867 2.75695 12.8914 2.9848 12.4559 3.30358C12.0204 3.62236 11.6534 4.02555 11.377 4.48912C11.1006 4.9527 10.9203 5.46718 10.8469 6.0019C10.7735 6.53662 10.8085 7.08065 10.9498 7.60156C11.0911 8.12248 11.3358 8.60963 11.6693 9.03398C12.0028 9.45833 12.4184 9.8112 12.8911 10.0716C13.2479 10.285 14.2766 10.693 17.1567 11.0316C17.2425 11.04 17.3258 11.0654 17.4017 11.1063C17.4776 11.1473 17.5445 11.203 17.5987 11.2701C17.6528 11.3373 17.693 11.4145 17.7169 11.4974C17.7408 11.5803 17.7479 11.6671 17.7379 11.7527C17.7278 11.8384 17.7008 11.9212 17.6583 11.9963C17.6159 12.0714 17.5589 12.1372 17.4907 12.19C17.4226 12.2428 17.3445 12.2815 17.2612 12.3038C17.1779 12.3261 17.091 12.3315 17.0055 12.3198C14.6269 12.0402 13.0183 11.6582 12.2256 11.1847C11.6051 10.8375 11.0605 10.3695 10.624 9.80833C10.1874 9.24712 9.86785 8.60409 9.6841 7.91724C9.50036 7.2304 9.45619 6.51369 9.5542 5.80948C9.6522 5.10527 9.89041 4.42785 10.2547 3.81729C10.619 3.20672 11.1021 2.67539 11.6752 2.2547C12.2484 1.83402 12.9001 1.53253 13.5919 1.36804C14.2836 1.20356 15.0012 1.17943 15.7024 1.29707C16.4036 1.41472 17.0741 1.67175 17.6743 2.05297C19.6202 3.21276 23.1359 8.93773 24.559 11.3455C24.6173 11.4441 24.6485 11.5563 24.6493 11.6708C24.6502 11.7853 24.6207 11.898 24.5639 11.9974C24.5071 12.0968 24.425 12.1795 24.326 12.2369C24.2269 12.2943 24.1144 12.3245 23.9999 12.3243Z" fill="black"/>
<path d="M27.243 46.7027H20.7566C20.5845 46.7027 20.4195 46.6344 20.2979 46.5127C20.1762 46.3911 20.1079 46.2261 20.1079 46.0541V18.8886C20.1079 18.7166 20.1762 18.5516 20.2979 18.43C20.4195 18.3083 20.5845 18.24 20.7566 18.24C20.9286 18.24 21.0936 18.3083 21.2152 18.43C21.3369 18.5516 21.4052 18.7166 21.4052 18.8886V45.4054H26.5944V18.8886C26.5944 18.7166 26.6627 18.5516 26.7844 18.43C26.906 18.3083 27.071 18.24 27.243 18.24C27.4151 18.24 27.5801 18.3083 27.7017 18.43C27.8233 18.5516 27.8917 18.7166 27.8917 18.8886V46.0541C27.8917 46.2261 27.8233 46.3911 27.7017 46.5127C27.5801 46.6344 27.4151 46.7027 27.243 46.7027Z" fill="black"/>
<path d="M27.2043 19.4594H20.7956C20.6236 19.4594 20.4586 19.3911 20.337 19.2694C20.2153 19.1478 20.147 18.9828 20.147 18.8108C20.147 18.6387 20.2153 18.4737 20.337 18.3521C20.4586 18.2304 20.6236 18.1621 20.7956 18.1621H27.2043C27.3763 18.1621 27.5413 18.2304 27.6629 18.3521C27.7846 18.4737 27.8529 18.6387 27.8529 18.8108C27.8529 18.9828 27.7846 19.1478 27.6629 19.2694C27.5413 19.3911 27.3763 19.4594 27.2043 19.4594Z" fill="black"/>
<path d="M30.2865 26.3111C30.1615 26.3111 30.0392 26.275 29.9342 26.2071C29.8293 26.1392 29.7462 26.0424 29.695 25.9284L23.4083 11.9416C23.3402 11.7851 23.3366 11.6081 23.3982 11.449C23.4598 11.2899 23.5815 11.1614 23.7372 11.0914C23.8928 11.0215 24.0697 11.0157 24.2296 11.0752C24.3895 11.1348 24.5195 11.255 24.5914 11.4097L30.1782 23.8391L31.0149 21.1706C31.0424 21.083 31.088 21.0023 31.1489 20.9337C31.2098 20.8651 31.2846 20.8102 31.3682 20.7727C31.4519 20.7351 31.5426 20.7157 31.6343 20.7157C31.7261 20.7158 31.8167 20.7353 31.9004 20.773L34.3458 21.8757L29.6995 11.9513C29.6634 11.8742 29.6428 11.7906 29.639 11.7055C29.6351 11.6204 29.6481 11.5353 29.6771 11.4552C29.7062 11.3751 29.7507 11.3015 29.8082 11.2386C29.8657 11.1757 29.935 11.1248 30.0121 11.0886C30.0893 11.0525 30.1728 11.032 30.258 11.0281C30.3431 11.0243 30.4281 11.0373 30.5082 11.0663C30.5884 11.0953 30.662 11.1398 30.7249 11.1973C30.7878 11.2548 30.8387 11.3241 30.8748 11.4013L36.2632 22.9103C36.3191 23.0302 36.3371 23.1644 36.3146 23.2948C36.2921 23.4252 36.2302 23.5456 36.1373 23.6399C36.0444 23.7341 35.9249 23.7977 35.7948 23.8221C35.6647 23.8464 35.5303 23.8304 35.4095 23.7762L32.0366 22.2558L30.9079 25.8558C30.8687 25.9814 30.7921 26.0922 30.6884 26.1733C30.5847 26.2544 30.4588 26.302 30.3274 26.3098L30.2865 26.3111Z" fill="black"/>
<path d="M17.7133 26.3112H17.6744C17.5429 26.3033 17.417 26.2557 17.3133 26.1746C17.2096 26.0935 17.1331 25.9828 17.0938 25.8571L15.9652 22.2571L12.5922 23.7775C12.4715 23.8318 12.337 23.8478 12.207 23.8234C12.0769 23.7991 11.9574 23.7355 11.8644 23.6412C11.7715 23.547 11.7097 23.4266 11.6872 23.2961C11.6647 23.1657 11.6826 23.0315 11.7386 22.9116L17.1243 11.4007C17.1972 11.2448 17.3291 11.1243 17.4909 11.0657C17.6527 11.007 17.8311 11.0151 17.987 11.088C18.1429 11.161 18.2634 11.2928 18.322 11.4546C18.3806 11.6164 18.3726 11.7949 18.2997 11.9507L13.6534 21.8751L16.0988 20.7724C16.1824 20.7347 16.2731 20.7152 16.3648 20.7151C16.4565 20.7151 16.5472 20.7345 16.6309 20.7721C16.7146 20.8096 16.7893 20.8645 16.8502 20.9331C16.9111 21.0017 16.9568 21.0824 16.9842 21.17L17.8209 23.8385L23.4084 11.4098C23.4803 11.255 23.6103 11.1348 23.7702 11.0753C23.9301 11.0157 24.107 11.0215 24.2626 11.0915C24.4182 11.1614 24.54 11.2899 24.6016 11.449C24.6632 11.6082 24.6596 11.7852 24.5915 11.9416L18.3048 25.9285C18.2536 26.0425 18.1705 26.1392 18.0655 26.2071C17.9606 26.275 17.8383 26.3112 17.7133 26.3112Z" fill="black"/>
</svg>
