<svg width="258" height="76" viewBox="0 0 258 76" fill="none" xmlns="http://www.w3.org/2000/svg">
<path d="M72.913 68V66.695C73.493 66.695 73.9377 66.5403 74.247 66.231C74.5563 65.9217 74.8173 65.506 75.03 64.984C75.2427 64.4427 75.4747 63.8433 75.726 63.186L81.584 47.149H82.744L89.095 63.418C89.2497 63.7853 89.414 64.288 89.588 64.926C89.7813 65.5447 89.878 66.0763 89.878 66.521C90.2067 66.5017 90.5257 66.4823 90.835 66.463C91.1637 66.4243 91.473 66.405 91.763 66.405V68H84.716V66.724C85.3927 66.7047 85.8373 66.5597 86.05 66.289C86.282 65.999 86.369 65.651 86.311 65.245C86.2723 64.839 86.1757 64.433 86.021 64.027L85.151 61.678L78.046 61.852L77.205 64.375C76.9343 65.1677 76.6733 65.8733 76.422 66.492C76.77 66.4727 77.1373 66.4533 77.524 66.434C77.93 66.3953 78.2877 66.376 78.597 66.376V68H72.913ZM78.568 60.286H84.658L82.831 55.385C82.599 54.7663 82.3767 54.138 82.164 53.5C81.9513 52.862 81.758 52.253 81.584 51.673H81.555C81.381 52.1563 81.1973 52.688 81.004 53.268C80.83 53.848 80.6173 54.4763 80.366 55.153L78.568 60.286ZM92.3942 75.395V74.177C92.9549 74.177 93.3512 74.0417 93.5832 73.771C93.8345 73.5003 93.9795 73.1233 94.0182 72.64C94.0762 72.1567 94.1052 71.596 94.1052 70.958L94.1342 57.531C94.1342 57.2217 94.1439 56.893 94.1632 56.545C94.1825 56.197 94.2115 55.8393 94.2502 55.472C93.9215 55.472 93.5735 55.4913 93.2062 55.53C92.8389 55.5493 92.5005 55.559 92.1912 55.559V54.022C93.0612 54.022 93.7475 53.9833 94.2502 53.906C94.7529 53.8287 95.1299 53.732 95.3812 53.616C95.6325 53.4807 95.8259 53.3453 95.9612 53.21H97.0052C97.0245 53.4033 97.0439 53.6353 97.0632 53.906C97.1019 54.1767 97.1212 54.4473 97.1212 54.718C97.7399 54.1767 98.4262 53.761 99.1802 53.471C99.9342 53.181 100.688 53.036 101.442 53.036C102.564 53.036 103.598 53.3357 104.545 53.935C105.493 54.515 106.247 55.3463 106.807 56.429C107.368 57.5117 107.648 58.7973 107.648 60.286C107.648 61.8907 107.32 63.3117 106.662 64.549C106.005 65.7863 105.116 66.753 103.994 67.449C102.892 68.1257 101.665 68.464 100.311 68.464C99.6925 68.464 99.1222 68.3867 98.6002 68.232C98.0782 68.0967 97.5852 67.9033 97.1212 67.652V71.799C97.1212 72.147 97.1115 72.495 97.0922 72.843C97.0922 73.2103 97.0729 73.5777 97.0342 73.945C97.3242 73.9257 97.6335 73.9063 97.9622 73.887C98.2909 73.887 98.5905 73.8773 98.8612 73.858V75.395H92.3942ZM100.108 66.956C101.017 66.956 101.771 66.6853 102.37 66.144C102.989 65.5833 103.453 64.839 103.762 63.911C104.072 62.9637 104.226 61.9003 104.226 60.721C104.226 59.735 104.091 58.7973 103.82 57.908C103.55 56.9993 103.115 56.2647 102.515 55.704C101.935 55.124 101.172 54.8437 100.224 54.863C99.6055 54.863 99.0255 55.008 98.4842 55.298C97.9429 55.588 97.4982 55.9457 97.1502 56.371C97.1502 56.6803 97.1502 57.038 97.1502 57.444C97.1695 57.8307 97.1792 58.3527 97.1792 59.01C97.1792 59.6673 97.1695 60.5567 97.1502 61.678C97.1502 62.7993 97.1502 64.2493 97.1502 66.028C97.5369 66.318 97.9815 66.55 98.4842 66.724C99.0062 66.898 99.5475 66.9753 100.108 66.956ZM117.15 68.464C115.778 68.464 114.54 68.1547 113.438 67.536C112.336 66.9173 111.457 66.057 110.799 64.955C110.161 63.8337 109.842 62.548 109.842 61.098C109.842 59.532 110.161 58.1497 110.799 56.951C111.457 55.733 112.336 54.776 113.438 54.08C114.54 53.384 115.768 53.036 117.121 53.036C118.494 53.036 119.731 53.355 120.833 53.993C121.935 54.6117 122.805 55.4817 123.443 56.603C124.101 57.705 124.429 58.981 124.429 60.431C124.429 61.9777 124.11 63.36 123.472 64.578C122.834 65.7767 121.964 66.724 120.862 67.42C119.78 68.116 118.542 68.464 117.15 68.464ZM117.353 67.014C118.281 67.014 119.006 66.7337 119.528 66.173C120.07 65.593 120.456 64.868 120.688 63.998C120.92 63.1087 121.036 62.1903 121.036 61.243C121.036 60.4117 120.959 59.5997 120.804 58.807C120.669 57.995 120.447 57.2603 120.137 56.603C119.828 55.9457 119.422 55.4237 118.919 55.037C118.417 54.631 117.808 54.4377 117.092 54.457C116.164 54.457 115.41 54.7373 114.83 55.298C114.27 55.8587 113.864 56.5837 113.612 57.473C113.361 58.343 113.235 59.271 113.235 60.257C113.235 61.3977 113.38 62.4803 113.67 63.505C113.96 64.5297 114.405 65.3707 115.004 66.028C115.623 66.6853 116.406 67.014 117.353 67.014ZM132.32 68.464C131.837 68.464 131.354 68.3963 130.87 68.261C130.387 68.145 129.942 67.9033 129.536 67.536C129.13 67.1493 128.802 66.5983 128.55 65.883C128.299 65.1677 128.183 64.2203 128.202 63.041L128.26 55.124H126.114V53.5C126.636 53.4807 127.158 53.2873 127.68 52.92C128.222 52.5527 128.695 52.0597 129.101 51.441C129.527 50.8223 129.817 50.1553 129.971 49.44H131.334V53.5H135.8V55.008L131.334 55.066L131.276 62.809C131.276 63.911 131.421 64.8003 131.711 65.477C132.021 66.1343 132.562 66.463 133.335 66.463C133.78 66.463 134.234 66.3277 134.698 66.057C135.182 65.7863 135.636 65.3417 136.061 64.723L137.047 65.593C136.429 66.5017 135.81 67.159 135.191 67.565C134.573 67.9517 134.012 68.1933 133.509 68.29C133.007 68.406 132.61 68.464 132.32 68.464ZM147.356 66.782C147.936 66.782 148.342 66.6467 148.574 66.376C148.826 66.1053 148.971 65.7283 149.009 65.245C149.067 64.7617 149.096 64.201 149.096 63.563L149.067 59.503C149.067 57.9757 148.826 56.835 148.342 56.081C147.878 55.3077 147.124 54.9307 146.08 54.95C145.462 54.9693 144.833 55.124 144.195 55.414C143.577 55.704 143.074 56.0713 142.687 56.516V64.404C142.687 64.752 142.678 65.1097 142.658 65.477C142.639 65.825 142.61 66.1827 142.571 66.55C142.881 66.5307 143.19 66.521 143.499 66.521C143.828 66.5017 144.128 66.4823 144.398 66.463V68H137.931V66.782C138.511 66.782 138.917 66.6467 139.149 66.376C139.401 66.1053 139.546 65.7283 139.584 65.245C139.642 64.7617 139.671 64.201 139.671 63.563V50.455C139.671 50.1263 139.671 49.7977 139.671 49.469C139.691 49.121 139.72 48.7537 139.758 48.367C139.43 48.367 139.082 48.3863 138.714 48.425C138.347 48.4443 138.009 48.454 137.699 48.454V46.917C139.014 46.917 139.942 46.83 140.483 46.656C141.025 46.482 141.402 46.2983 141.614 46.105H142.687V54.863C143.306 54.341 144.041 53.906 144.891 53.558C145.742 53.21 146.535 53.036 147.269 53.036C148.99 53.036 150.218 53.558 150.952 54.602C151.706 55.646 152.093 57.2797 152.112 59.503V64.404C152.112 64.752 152.103 65.1097 152.083 65.477C152.083 65.825 152.054 66.1827 151.996 66.55C152.306 66.5307 152.625 66.521 152.953 66.521C153.282 66.5017 153.582 66.4823 153.852 66.463V68H147.356V66.782ZM162.826 68.464C161.473 68.464 160.255 68.1547 159.172 67.536C158.109 66.898 157.268 66.0087 156.649 64.868C156.03 63.708 155.721 62.345 155.721 60.779C155.721 59.4257 156.021 58.1593 156.62 56.98C157.239 55.8007 158.089 54.8533 159.172 54.138C160.274 53.4033 161.56 53.036 163.029 53.036C164.092 53.036 165.088 53.268 166.016 53.732C166.944 54.1767 167.688 54.892 168.249 55.878C168.829 56.8447 169.119 58.1207 169.119 59.706L159.143 59.88C159.143 61.214 159.288 62.3933 159.578 63.418C159.887 64.4233 160.38 65.2063 161.057 65.767C161.734 66.3277 162.613 66.608 163.696 66.608C164.489 66.608 165.33 66.405 166.219 65.999C167.108 65.5737 167.833 65.0033 168.394 64.288L169.293 65.071C168.694 65.941 168.017 66.6273 167.263 67.13C166.528 67.6133 165.765 67.9517 164.972 68.145C164.199 68.3577 163.483 68.464 162.826 68.464ZM159.259 58.372H165.958C165.958 57.2893 165.726 56.371 165.262 55.617C164.798 54.8437 164.073 54.457 163.087 54.457C162.043 54.457 161.192 54.7857 160.535 55.443C159.897 56.081 159.472 57.0573 159.259 58.372ZM171.237 68V66.782C171.797 66.782 172.194 66.6467 172.426 66.376C172.677 66.1053 172.822 65.7283 172.861 65.245C172.899 64.7617 172.919 64.201 172.919 63.563L172.948 50.455C172.948 50.1263 172.948 49.7977 172.948 49.469C172.967 49.121 172.996 48.7537 173.035 48.367C172.706 48.367 172.358 48.3863 171.991 48.425C171.623 48.4443 171.295 48.454 171.005 48.454V46.917C172.3 46.917 173.218 46.83 173.76 46.656C174.301 46.482 174.668 46.2983 174.862 46.105H175.964V59.648H177.211L180.256 56.371C180.546 56.0617 180.807 55.791 181.039 55.559C181.29 55.327 181.532 55.124 181.764 54.95L179.937 55.008V53.5H185.65V54.689C184.973 54.7663 184.354 54.9693 183.794 55.298C183.252 55.6073 182.759 55.965 182.315 56.371C181.87 56.777 181.493 57.154 181.184 57.502L179.038 59.764C179.386 59.938 179.695 60.1603 179.966 60.431C180.256 60.6823 180.555 61.011 180.865 61.417L182.895 64.027C182.991 64.143 183.146 64.3557 183.359 64.665C183.591 64.955 183.861 65.2643 184.171 65.593C184.48 65.9217 184.799 66.202 185.128 66.434C185.476 66.666 185.804 66.782 186.114 66.782V68H183.243C182.682 68 182.16 67.739 181.677 67.217C181.193 66.695 180.681 66.0667 180.14 65.332C179.463 64.404 178.854 63.5533 178.313 62.78C177.771 62.0067 177.327 61.4267 176.979 61.04L175.964 61.098V64.404C175.964 64.752 175.954 65.1097 175.935 65.477C175.935 65.825 175.906 66.1827 175.848 66.55C176.157 66.5307 176.476 66.521 176.805 66.521C177.133 66.5017 177.433 66.4823 177.704 66.463V68H171.237ZM194.262 68.464C192.908 68.464 191.69 68.1547 190.608 67.536C189.544 66.898 188.703 66.0087 188.085 64.868C187.466 63.708 187.157 62.345 187.157 60.779C187.157 59.4257 187.456 58.1593 188.056 56.98C188.674 55.8007 189.525 54.8533 190.608 54.138C191.71 53.4033 192.995 53.036 194.465 53.036C195.528 53.036 196.524 53.268 197.452 53.732C198.38 54.1767 199.124 54.892 199.685 55.878C200.265 56.8447 200.555 58.1207 200.555 59.706L190.579 59.88C190.579 61.214 190.724 62.3933 191.014 63.418C191.323 64.4233 191.816 65.2063 192.493 65.767C193.169 66.3277 194.049 66.608 195.132 66.608C195.924 66.608 196.765 66.405 197.655 65.999C198.544 65.5737 199.269 65.0033 199.83 64.288L200.729 65.071C200.129 65.941 199.453 66.6273 198.699 67.13C197.964 67.6133 197.2 67.9517 196.408 68.145C195.634 68.3577 194.919 68.464 194.262 68.464ZM190.695 58.372H197.394C197.394 57.2893 197.162 56.371 196.698 55.617C196.234 54.8437 195.509 54.457 194.523 54.457C193.479 54.457 192.628 54.7857 191.971 55.443C191.333 56.081 190.907 57.0573 190.695 58.372Z" fill="#FF6B03"/>
<path d="M74.85 34.558C75.4173 34.5333 75.886 34.4593 76.256 34.336C76.6507 34.2127 76.9467 33.929 77.144 33.485C77.366 33.041 77.477 32.3257 77.477 31.339V17.168C77.477 16.502 77.4893 15.8607 77.514 15.244C77.5633 14.6273 77.6003 14.1587 77.625 13.838C77.2303 13.8627 76.737 13.8873 76.145 13.912C75.553 13.912 75.1213 13.9243 74.85 13.949V11.1L85.617 11.063C88.059 11.063 90.168 11.433 91.944 12.173C93.7447 12.8883 95.2123 13.8627 96.347 15.096C97.5063 16.3293 98.3697 17.7107 98.937 19.24C99.5043 20.7447 99.788 22.2617 99.788 23.791C99.788 25.2957 99.5167 26.825 98.974 28.379C98.456 29.933 97.6297 31.3637 96.495 32.671C95.3603 33.9537 93.8803 35.002 92.055 35.816C90.2297 36.6053 88.022 37 85.432 37H74.85V34.558ZM82.842 30.932C82.842 31.598 82.8297 32.2393 82.805 32.856C82.7803 33.4727 82.7433 33.9413 82.694 34.262C82.9407 34.2373 83.2737 34.2373 83.693 34.262C84.137 34.262 84.5933 34.2743 85.062 34.299C85.5307 34.299 85.913 34.299 86.209 34.299C87.5657 34.299 88.725 34.0277 89.687 33.485C90.6737 32.9423 91.4753 32.2147 92.092 31.302C92.7333 30.3647 93.202 29.3163 93.498 28.157C93.794 26.9977 93.942 25.8013 93.942 24.568C93.942 20.794 93.1773 18.0313 91.648 16.28C90.1433 14.5287 88.1083 13.616 85.543 13.542C84.951 13.5173 84.4453 13.579 84.026 13.727C83.6313 13.8503 83.3353 14.134 83.138 14.578C82.9407 15.022 82.842 15.725 82.842 16.687V30.932ZM111.657 37.592C109.881 37.592 108.278 37.2097 106.847 36.445C105.417 35.6803 104.282 34.595 103.443 33.189C102.629 31.7583 102.222 30.081 102.222 28.157C102.222 26.1097 102.642 24.3213 103.48 22.792C104.344 21.238 105.478 20.0417 106.884 19.203C108.315 18.3397 109.869 17.908 111.546 17.908C113.322 17.908 114.913 18.2903 116.319 19.055C117.725 19.8197 118.835 20.9173 119.649 22.348C120.463 23.754 120.87 25.4437 120.87 27.417C120.87 29.489 120.476 31.2897 119.686 32.819C118.897 34.3483 117.812 35.5323 116.43 36.371C115.049 37.185 113.458 37.592 111.657 37.592ZM111.805 34.965C112.792 34.9403 113.532 34.595 114.025 33.929C114.543 33.263 114.901 32.4243 115.098 31.413C115.296 30.4017 115.394 29.378 115.394 28.342C115.394 27.4293 115.32 26.5043 115.172 25.567C115.049 24.6297 114.839 23.7787 114.543 23.014C114.247 22.2493 113.84 21.6327 113.322 21.164C112.829 20.6953 112.212 20.4733 111.472 20.498C110.51 20.5227 109.746 20.868 109.178 21.534C108.636 22.2 108.241 23.0387 107.994 24.05C107.772 25.0367 107.661 26.0727 107.661 27.158C107.661 28.416 107.797 29.6493 108.068 30.858C108.34 32.0667 108.771 33.0657 109.363 33.855C109.98 34.6197 110.794 34.9897 111.805 34.965ZM132.281 37.592C130.629 37.592 129.112 37.222 127.73 36.482C126.349 35.742 125.239 34.669 124.4 33.263C123.586 31.857 123.179 30.155 123.179 28.157C123.179 26.2823 123.586 24.5803 124.4 23.051C125.214 21.497 126.337 20.2513 127.767 19.314C129.223 18.3767 130.9 17.908 132.799 17.908C134.378 17.908 135.685 18.1547 136.721 18.648C137.782 19.1167 138.571 19.7457 139.089 20.535C139.632 21.2997 139.903 22.1137 139.903 22.977C139.903 23.6923 139.681 24.3337 139.237 24.901C138.818 25.4437 138.214 25.7273 137.424 25.752C136.487 25.7767 135.833 25.5177 135.463 24.975C135.093 24.4077 134.908 23.865 134.908 23.347C134.908 23.125 134.945 22.866 135.019 22.57C135.093 22.2493 135.204 21.9657 135.352 21.719C135.081 21.1763 134.649 20.831 134.057 20.683C133.465 20.535 132.997 20.4733 132.651 20.498C131.467 20.572 130.493 21.164 129.728 22.274C128.964 23.384 128.581 24.9873 128.581 27.084C128.581 28.3173 128.729 29.4767 129.025 30.562C129.346 31.6227 129.864 32.4983 130.579 33.189C131.295 33.8797 132.257 34.2497 133.465 34.299C134.501 34.3237 135.513 34.077 136.499 33.559C137.486 33.041 138.325 32.338 139.015 31.45L140.717 33.115C139.829 34.3483 138.904 35.2857 137.942 35.927C136.98 36.5683 136.018 37 135.056 37.222C134.119 37.4687 133.194 37.592 132.281 37.592ZM155.628 37.37C154.79 35.3227 153.951 33.2877 153.112 31.265C152.298 29.2423 151.472 27.2197 150.633 25.197C150.436 24.7283 150.177 24.0747 149.856 23.236C149.56 22.3727 149.24 21.386 148.894 20.276C148.574 19.166 148.278 18.019 148.006 16.835C148.056 18.2163 148.093 19.5237 148.117 20.757C148.142 21.9657 148.142 23.125 148.117 24.235C148.117 25.345 148.105 26.4673 148.08 27.602C148.08 28.712 148.08 29.822 148.08 30.932C148.08 31.598 148.056 32.2393 148.006 32.856C147.982 33.4727 147.945 33.9413 147.895 34.262C148.315 34.2127 148.82 34.188 149.412 34.188C150.029 34.1633 150.461 34.151 150.707 34.151V37H142.271V34.558C142.839 34.5333 143.307 34.4593 143.677 34.336C144.072 34.2127 144.368 33.929 144.565 33.485C144.787 33.041 144.898 32.3257 144.898 31.339L145.12 17.168C145.145 16.502 145.17 15.8607 145.194 15.244C145.219 14.6273 145.244 14.1587 145.268 13.838C144.874 13.8627 144.38 13.8873 143.788 13.912C143.196 13.912 142.765 13.9243 142.493 13.949V11.1H150.67L156.257 25.419C156.479 25.9863 156.726 26.6523 156.997 27.417C157.269 28.157 157.528 28.8847 157.774 29.6C158.021 30.2907 158.206 30.8457 158.329 31.265H158.366C158.687 30.4017 158.983 29.563 159.254 28.749C159.526 27.935 159.809 27.1457 160.105 26.381C161.067 23.8157 162.017 21.2627 162.954 18.722C163.916 16.1813 164.878 13.6407 165.84 11.1H174.387V13.542C173.845 13.5667 173.364 13.6407 172.944 13.764C172.525 13.8873 172.204 14.171 171.982 14.615C171.785 15.0343 171.699 15.7497 171.723 16.761L172.278 30.932C172.328 31.598 172.328 32.2393 172.278 32.856C172.229 33.4727 172.18 33.9413 172.13 34.262C172.55 34.2127 173.055 34.188 173.647 34.188C174.264 34.1633 174.696 34.151 174.942 34.151V37H164.656V34.558C165.224 34.5333 165.705 34.4593 166.099 34.336C166.519 34.2127 166.827 33.929 167.024 33.485C167.246 33.041 167.333 32.3257 167.283 31.339L166.987 23.495C166.987 23.199 166.963 22.6933 166.913 21.978C166.864 21.238 166.815 20.4363 166.765 19.573C166.741 18.685 166.716 17.8587 166.691 17.094C166.617 17.2667 166.543 17.4393 166.469 17.612C166.395 17.76 166.334 17.9203 166.284 18.093L159.069 37.37H155.628ZM186.199 37.592C184.423 37.592 182.82 37.2097 181.389 36.445C179.959 35.6803 178.824 34.595 177.985 33.189C177.171 31.7583 176.764 30.081 176.764 28.157C176.764 26.1097 177.184 24.3213 178.022 22.792C178.886 21.238 180.02 20.0417 181.426 19.203C182.857 18.3397 184.411 17.908 186.088 17.908C187.864 17.908 189.455 18.2903 190.861 19.055C192.267 19.8197 193.377 20.9173 194.191 22.348C195.005 23.754 195.412 25.4437 195.412 27.417C195.412 29.489 195.018 31.2897 194.228 32.819C193.439 34.3483 192.354 35.5323 190.972 36.371C189.591 37.185 188 37.592 186.199 37.592ZM186.347 34.965C187.334 34.9403 188.074 34.595 188.567 33.929C189.085 33.263 189.443 32.4243 189.64 31.413C189.838 30.4017 189.936 29.378 189.936 28.342C189.936 27.4293 189.862 26.5043 189.714 25.567C189.591 24.6297 189.381 23.7787 189.085 23.014C188.789 22.2493 188.382 21.6327 187.864 21.164C187.371 20.6953 186.754 20.4733 186.014 20.498C185.052 20.5227 184.288 20.868 183.72 21.534C183.178 22.2 182.783 23.0387 182.536 24.05C182.314 25.0367 182.203 26.0727 182.203 27.158C182.203 28.416 182.339 29.6493 182.61 30.858C182.882 32.0667 183.313 33.0657 183.905 33.855C184.522 34.6197 185.336 34.9897 186.347 34.965ZM198.091 34.595C199.103 34.595 199.719 34.299 199.941 33.707C200.163 33.0903 200.274 32.2887 200.274 31.302V25.086C200.274 24.642 200.287 24.1487 200.311 23.606C200.336 23.0387 200.373 22.4837 200.422 21.941C200.028 21.9657 199.559 21.9903 199.016 22.015C198.498 22.015 198.104 22.0273 197.832 22.052V19.24H199.312C200.274 19.24 201.15 19.1167 201.939 18.87C202.753 18.6233 203.284 18.3767 203.53 18.13H205.343C205.393 18.3767 205.43 18.8453 205.454 19.536C205.479 20.202 205.491 20.794 205.491 21.312C206.478 20.0787 207.403 19.203 208.266 18.685C209.13 18.167 210.005 17.908 210.893 17.908C211.757 17.908 212.509 18.1547 213.15 18.648C213.792 19.1167 214.112 19.8937 214.112 20.979C214.112 21.349 214.026 21.7437 213.853 22.163C213.681 22.5577 213.409 22.8907 213.039 23.162C212.669 23.4333 212.164 23.569 211.522 23.569C211.029 23.569 210.523 23.421 210.005 23.125C209.487 22.829 209.191 22.2617 209.117 21.423C208.624 21.423 208.131 21.6327 207.637 22.052C207.144 22.4467 206.7 22.9277 206.305 23.495C205.935 24.0377 205.676 24.5433 205.528 25.012V31.043C205.528 31.3883 205.516 31.8817 205.491 32.523C205.467 33.1397 205.43 33.7317 205.38 34.299C205.775 34.2497 206.207 34.225 206.675 34.225C207.169 34.2003 207.539 34.188 207.785 34.188V37H198.091V34.595ZM224.349 37.592C222.548 37.592 220.957 37.1973 219.576 36.408C218.194 35.594 217.121 34.4593 216.357 33.004C215.592 31.524 215.21 29.785 215.21 27.787C215.21 26.0603 215.592 24.4447 216.357 22.94C217.121 21.4353 218.194 20.2267 219.576 19.314C220.982 18.3767 222.61 17.908 224.46 17.908C225.496 17.908 226.507 18.056 227.494 18.352C228.48 18.6233 229.368 19.1043 230.158 19.795C230.972 20.4857 231.613 21.423 232.082 22.607C232.575 23.791 232.809 25.271 232.785 27.047L220.649 27.269C220.649 28.601 220.809 29.7973 221.13 30.858C221.475 31.9187 222.03 32.7573 222.795 33.374C223.559 33.9907 224.583 34.299 225.866 34.299C226.606 34.299 227.481 34.1017 228.493 33.707C229.529 33.2877 230.466 32.56 231.305 31.524L232.97 33.078C232.082 34.336 231.132 35.298 230.121 35.964C229.109 36.6053 228.098 37.037 227.087 37.259C226.1 37.481 225.187 37.592 224.349 37.592ZM220.871 24.679H227.679C227.654 23.1497 227.358 22.0767 226.791 21.46C226.223 20.8187 225.508 20.498 224.645 20.498C223.559 20.498 222.708 20.8927 222.092 21.682C221.475 22.4467 221.068 23.4457 220.871 24.679ZM234.897 34.595C235.933 34.595 236.549 34.299 236.747 33.707C236.969 33.0903 237.08 32.2887 237.08 31.302V16.095C237.08 15.651 237.092 15.1453 237.117 14.578C237.141 13.986 237.178 13.4187 237.228 12.876C236.833 12.9007 236.364 12.9253 235.822 12.95C235.304 12.95 234.909 12.9623 234.638 12.987V10.175C236.364 10.175 237.684 10.0517 238.597 9.805C239.509 9.55833 240.089 9.31166 240.336 9.065H242.334V31.043C242.334 31.3883 242.321 31.8817 242.297 32.523C242.272 33.1397 242.235 33.7317 242.186 34.299C242.605 34.2497 243.049 34.225 243.518 34.225C243.986 34.2003 244.344 34.188 244.591 34.188V37H234.897V34.595ZM246.423 34.595C247.459 34.595 248.076 34.299 248.273 33.707C248.495 33.0903 248.606 32.2887 248.606 31.302V16.095C248.606 15.651 248.618 15.1453 248.643 14.578C248.668 13.986 248.705 13.4187 248.754 12.876C248.359 12.9007 247.891 12.9253 247.348 12.95C246.83 12.95 246.435 12.9623 246.164 12.987V10.175C247.891 10.175 249.21 10.0517 250.123 9.805C251.036 9.55833 251.615 9.31166 251.862 9.065H253.86V31.043C253.86 31.3883 253.848 31.8817 253.823 32.523C253.798 33.1397 253.761 33.7317 253.712 34.299C254.131 34.2497 254.575 34.225 255.044 34.225C255.513 34.2003 255.87 34.188 256.117 34.188V37H246.423V34.595Z" fill="#143650"/>
<path d="M31.5 69C48.897 69 63 54.897 63 37.5C63 20.103 48.897 6 31.5 6C14.103 6 0 20.103 0 37.5C0 54.897 14.103 69 31.5 69Z" fill="#FF6B03"/>
<path d="M31.5571 6V68.9985C48.9278 68.9676 63.0002 54.8772 63.0002 37.4993C63.0002 20.1214 48.9279 6.03088 31.5571 6Z" fill="#3CACFE"/>
<path d="M48.7202 29.5512H40.0308C39.7288 29.5512 39.484 29.3064 39.484 29.0044V20.315C39.484 19.3405 38.694 18.5507 37.7197 18.5507H25.3937C24.4193 18.5507 23.6294 19.3406 23.6294 20.315V29.0044C23.6294 29.3064 23.3846 29.5512 23.0827 29.5512H14.3932C13.4187 29.5512 12.6289 30.3411 12.6289 31.3155V43.6414C12.6289 44.6159 13.4189 45.4057 14.3932 45.4057H23.0827C23.3846 45.4057 23.6294 45.6505 23.6294 45.9525V54.6418C23.6294 55.6163 24.4194 56.4061 25.3937 56.4061H37.7197C38.6941 56.4061 39.484 55.6162 39.484 54.6418V45.9525C39.484 45.6505 39.7288 45.4057 40.0308 45.4057H48.7202C49.6947 45.4057 50.4845 44.6158 50.4845 43.6414V31.3156C50.4845 30.3411 49.6947 29.5512 48.7202 29.5512Z" fill="white"/>
<path d="M48.7206 29.5512H40.0312C39.7292 29.5512 39.4844 29.3064 39.4844 29.0044V20.315C39.4844 19.3405 38.6944 18.5507 37.7201 18.5507H31.5571V56.4063H37.7201C38.6946 56.4063 39.4844 55.6163 39.4844 54.642V45.9526C39.4844 45.6507 39.7292 45.4059 40.0312 45.4059H48.7206C49.6951 45.4059 50.4849 44.6159 50.4849 43.6416V31.3156C50.4849 30.3411 49.6951 29.5512 48.7206 29.5512Z" fill="white"/>
</svg>
