<svg width="14" height="14" viewBox="0 0 14 14" fill="none" xmlns="http://www.w3.org/2000/svg">
<path d="M6.66667 0.151978C5.93333 0.151978 5.33333 0.751978 5.33333 1.48531V5.48531H1.33333C0.6 5.48531 0 6.08531 0 6.81864C0 7.55198 0.6 8.15198 1.33333 8.15198H5.33333V12.152C5.33333 12.8853 5.93333 13.4853 6.66667 13.4853C7.4 13.4853 8 12.8853 8 12.152V8.15198H12C12.7333 8.15198 13.3333 7.55198 13.3333 6.81864C13.3333 6.08531 12.7333 5.48531 12 5.48531H8V1.48531C8 0.751978 7.4 0.151978 6.66667 0.151978Z" fill="#091924"/>
</svg>
