<svg width="34" height="34" viewBox="0 0 34 34" fill="none" xmlns="http://www.w3.org/2000/svg">
<path fill-rule="evenodd" clip-rule="evenodd" d="M21.5144 20.5013H22.6335L28.6402 26.5363C29.221 27.1172 29.221 28.0663 28.6402 28.6472C28.0594 29.228 27.1102 29.228 26.5294 28.6472L20.5085 22.6263V21.5072L20.126 21.1105C18.1427 22.8105 15.4369 23.6888 12.561 23.2072C8.6227 22.5413 5.4777 19.2547 4.99604 15.288C4.25937 9.2955 9.3027 4.25217 15.2952 4.98883C19.2619 5.4705 22.5485 8.6155 23.2144 12.5538C23.696 15.4297 22.8177 18.1355 21.1177 20.1188L21.5144 20.5013ZM7.75853 14.1263C7.75853 17.6538 10.606 20.5013 14.1335 20.5013C17.661 20.5013 20.5085 17.6538 20.5085 14.1263C20.5085 10.5988 17.661 7.75133 14.1335 7.75133C10.606 7.75133 7.75853 10.5988 7.75853 14.1263Z" fill="#3CACFE"/>
</svg>
